<svg xmlns="http://www.w3.org/2000/svg" viewBox="2058 58 177.55 79.222"><defs><style>.a{fill:#fff;}</style></defs><g transform="translate(2058 58)"><path class="a" d="M200.383,36.267c2.037,6.983,11.129,9.747,17.093,5.383.582-.436,1.091-.873,1.6-1.309a3.686,3.686,0,0,1,5.237.291,3.848,3.848,0,0,1-.145,5.31A19.046,19.046,0,0,1,191.8,31.975c-.073-9.892,8.874-18.475,18.33-18.475,8.583,0,16.8,4.873,19.2,14.984a18.718,18.718,0,0,1,.436,4,3.621,3.621,0,0,1-3.128,3.637,17.835,17.835,0,0,1-1.964.145Zm.073-7.783H221.4a11.106,11.106,0,0,0-10.91-7.419C205.765,21.356,201.11,24.774,200.455,28.484Z" transform="translate(-52.218 -3.669)"/><path class="a" d="M58.679,36.258c2.109,6.983,11.2,9.747,17.093,5.383.582-.436,1.091-.873,1.6-1.309a3.686,3.686,0,0,1,5.237.291,3.848,3.848,0,0,1-.145,5.31A19.042,19.042,0,0,1,50.242,34.658c-1.309-9.383,5.819-19.275,15.2-20.875A18.906,18.906,0,0,1,87.556,28.4a18.717,18.717,0,0,1,.436,4,3.621,3.621,0,0,1-3.128,3.637,17.835,17.835,0,0,1-1.964.145C75.481,36.258,59.334,36.258,58.679,36.258Zm20.948-7.71a11.232,11.232,0,0,0-10.91-7.492c-4.728.291-9.383,3.71-10.038,7.492Z" transform="translate(-13.583 -3.66)"/><path class="a" d="M141.665,17.161h9.019c4.946,0,5.019,7.492-.073,7.492h-8.947V43.419c0,5.746-7.565,5.455-7.565,0v-32A11.272,11.272,0,0,1,146.1,0a11.121,11.121,0,0,1,7.274,3.2,3.741,3.741,0,0,1,.218,5.383,3.686,3.686,0,0,1-5.237.291c-1.382-1.164-2.837-1.746-4.51-.873-1.673.8-2.182,2.328-2.182,4.146Z" transform="translate(-36.488 0.017)"/><path class="a" d="M112.9,4.226c0-5.6,7.565-5.6,7.565,0V43.5c0,5.746-7.565,5.673-7.565,0Z" transform="translate(-30.708 0.005)"/><path class="a" d="M177.665,50.194a3.784,3.784,0,1,1-7.565,0V27.428a3.806,3.806,0,0,1,3.855-3.928,3.677,3.677,0,0,1,3.637,3.928C177.737,32.447,177.665,45.1,177.665,50.194Z" transform="translate(-46.302 -6.395)"/><path class="a" d="M30.158,37.721c-1.237-5.6-5.528-8.947-11.492-9.092H11.683a3.806,3.806,0,0,1-3.419-1.818c-1.6-2.691.291-5.673,3.564-5.746s6.619,0,9.892,0c2.619,0,4.219-1.527,4.219-3.855,0-2.182-1.673-3.71-4.219-3.71H10.883c-6.91,0-12.147,6.91-10.62,13.6,1.237,5.6,5.528,9.019,11.492,9.165h6.983c2.473.073,4.073,1.527,4.073,3.71s-1.673,3.782-4.146,3.782c-4.582.073-14.329.073-14.547.073C1.5,43.831-.1,45.359-.1,47.686c0,2.182,1.673,3.637,4.146,3.637h15.42C26.449,51.323,31.686,44.413,30.158,37.721Z" transform="translate(0.1 -3.669)"/><ellipse class="a" cx="6.183" cy="6.183" rx="6.183" ry="6.183" transform="translate(121.47 66.857)"/></g></svg>